<svg width="212" height="86" viewBox="0 0 212 86" fill="none" xmlns="http://www.w3.org/2000/svg">
<g clip-path="url(#clip0)">
<path d="M137.439 13.5527H14.563V52.5365H137.439V13.5527Z" fill="url(#paint0_linear)"/>
<path fill-rule="evenodd" clip-rule="evenodd" d="M147.872 19.7797H158.637V47.1592H149.068V27.8531H141.936L147.872 19.7797ZM148.554 21.0784L144.526 26.5631H150.39V45.8692H157.312V21.0784H148.554ZM168.538 19.7797H184.503C186.308 19.7474 188.11 19.952 189.859 20.3881C191.228 20.7179 192.515 21.3149 193.642 22.1432C194.627 22.8751 195.395 23.8505 195.867 24.9689C196.814 27.1703 196.844 29.6466 195.95 31.8694C195.504 32.8831 194.807 33.7727 193.923 34.4582C192.919 35.2159 191.771 35.7725 190.547 36.0963C189.046 36.5054 187.494 36.7024 185.936 36.6813H173.251C172.354 36.6813 171.777 36.8188 171.457 37.0118C171.25 37.1435 171.089 37.3833 171.089 37.904V39.1648H197.482L191.154 47.168H161.777V37.9713C161.777 35.4147 162.698 33.4168 164.609 32.1034C166.469 30.7959 169.112 30.1874 172.443 30.1874H185.116C186.035 30.1874 186.591 30.0616 186.887 29.8949C187.117 29.7545 187.281 29.5146 187.281 29.0173C187.281 28.5201 187.117 28.2978 186.908 28.1837C186.609 28.014 186.052 27.8912 185.131 27.8912H162.222L168.538 19.7797ZM169.196 21.0784L164.911 26.5631H185.125C186.115 26.5631 186.962 26.6918 187.569 27.0399C188.31 27.4465 188.621 28.1691 188.621 29.0057C188.647 29.3995 188.565 29.793 188.382 30.145C188.2 30.497 187.924 30.7945 187.583 31.0065C186.985 31.3546 186.127 31.4862 185.134 31.4862H172.452C169.253 31.4862 166.929 32.0712 165.389 33.1565C163.894 34.1832 163.12 35.7452 163.12 37.9654V45.8634H190.505L194.778 40.4577H169.758V37.8982C169.758 37.0733 170.042 36.3478 170.739 35.909C171.373 35.5317 172.234 35.3854 173.239 35.3854H185.912C187.341 35.4109 188.767 35.2366 190.146 34.8677C191.204 34.5924 192.195 34.1163 193.065 33.4665C193.778 32.9145 194.34 32.1979 194.7 31.3809C195.083 30.48 195.276 29.5131 195.269 28.5376C195.285 27.4903 195.074 26.4515 194.65 25.4896C194.264 24.575 193.634 23.7787 192.826 23.1846C191.833 22.4572 190.699 21.9338 189.494 21.6459C187.864 21.2409 186.185 21.05 184.503 21.0784H169.196Z" fill="#5E6069"/>
<path fill-rule="evenodd" clip-rule="evenodd" d="M41.9665 31.0942H33.7162V46.6882H41.9665V31.0942ZM21.8684 27.3909H21.2046L26.5453 20.6074H56.8315L51.6462 27.2037H21.8684V27.3909ZM54.9236 31.0942C54.7806 31.8525 54.7095 32.6222 54.7113 33.3933C54.6977 35.2266 55.1065 37.0393 55.9075 38.6967C56.7292 40.3021 57.8674 41.7326 59.2566 42.906C60.7735 44.1206 62.5016 45.058 64.3582 45.6732C66.4218 46.3653 68.5909 46.7086 70.7724 46.6882H89.0643V31.0942H71.4213L67.0764 36.2015H80.8648V39.9808H70.7724C69.707 39.9909 68.646 39.847 67.6236 39.5538C66.7186 39.2672 65.8702 38.832 65.1147 38.2667C64.4376 37.7349 63.8807 37.0715 63.479 36.3185C63.1022 35.511 62.9123 34.632 62.9228 33.7444C62.9081 32.8649 63.1135 31.9953 63.5209 31.2112C63.5388 31.1702 63.5597 31.1322 63.5807 31.0942H54.9236ZM84.6745 27.2037H56.4966C57.2388 26.0485 58.1715 25.0216 59.2566 24.1644C60.769 22.98 62.5013 22.0929 64.3582 21.5523C66.4323 20.911 68.5972 20.595 70.7724 20.6162H89.8627L84.6745 27.2037ZM93.5498 31.1029C93.623 31.3412 93.7088 31.5755 93.807 31.805C94.2092 32.7222 94.8393 33.5266 95.6401 34.1451C96.5645 34.8453 97.62 35.3621 98.747 35.6662C100.201 36.0561 101.704 36.2403 103.212 36.2132H117.718C118.702 36.2132 119.416 36.3565 119.868 36.6403C120.319 36.924 120.547 37.4067 120.547 38.0824C120.57 38.3655 120.521 38.65 120.402 38.9093C120.283 39.1685 120.1 39.3943 119.868 39.5655C119.416 39.858 118.702 39.9925 117.718 39.9925H97.5509L92.252 46.6882H117.072C118.817 46.7199 120.559 46.5232 122.251 46.1032C123.551 45.7885 124.772 45.2182 125.84 44.4271C126.749 43.7227 127.45 42.7937 127.87 41.7359C128.309 40.5899 128.525 39.3735 128.507 38.1497C128.507 35.7608 127.657 33.9803 125.956 32.8083C124.61 31.8645 122.774 31.2931 120.448 31.0942L93.5498 31.1029ZM122.652 27.2037H93.3286C93.4269 26.5878 93.6006 25.9858 93.8459 25.4106C94.2951 24.4009 94.9939 23.5163 95.8793 22.8364C96.943 22.0734 98.1472 21.5182 99.4258 21.2012C101.132 20.7813 102.888 20.5846 104.647 20.6162H127.801L122.652 27.2037Z" fill="white"/>
<path d="M23.3814 64.114H31.9099V72.2518H22.7654C21.6743 72.2618 20.5894 72.0907 19.5568 71.7458C18.6286 71.4366 17.7646 70.967 17.006 70.3593C16.3116 69.773 15.7424 69.0582 15.3314 68.2561C14.9311 67.4278 14.7267 66.522 14.7334 65.6059C14.722 64.7071 14.9269 63.8183 15.3314 63.0112C15.7371 62.2275 16.3078 61.5366 17.006 60.9841C17.7626 60.3929 18.6287 59.9499 19.5568 59.6795C20.5944 59.3588 21.6773 59.2008 22.7654 59.2114H32.3106L29.6402 62.6017H22.7624C22.2346 62.5975 21.7095 62.6765 21.2074 62.8357C20.7512 62.9809 20.3256 63.2059 19.9515 63.4997C19.6122 63.7835 19.3354 64.1318 19.1381 64.5235C18.9346 64.9167 18.8319 65.3524 18.8391 65.7931C18.834 66.2359 18.9289 66.6744 19.1172 67.0772C19.3179 67.4551 19.597 67.7878 19.9365 68.0542C20.3137 68.3362 20.7375 68.5529 21.1895 68.6948C21.7009 68.843 22.232 68.9159 22.7654 68.9113H27.8101V67.0187H20.9114L23.3814 64.114Z" fill="#5E6069"/>
<path d="M53.8678 72.2521L56.3587 68.8999H60.9429C61.3795 68.8999 61.7593 68.8999 62.0793 68.9379C61.8909 68.7039 61.6726 68.4114 61.4214 68.0604C61.1702 67.7093 60.9489 67.3583 60.7216 67.0483L58.3294 63.5966L52.0736 72.2521H47.1934L55.7427 60.4579C56.037 60.0674 56.3933 59.7257 56.7983 59.4457C57.2732 59.1326 57.8379 58.9758 58.4101 58.9982C58.9614 58.9776 59.5053 59.127 59.9651 59.4253C60.3887 59.6983 60.7543 60.0489 61.0416 60.4579L69.3757 72.2521H53.8678Z" fill="#5E6069"/>
<path d="M93.9952 64.0756C94.2942 64.5817 94.5395 65.0321 94.7518 65.4212C94.9641 65.8102 95.1704 66.1349 95.3289 66.4362C95.4874 66.7375 95.6489 67.0066 95.7685 67.2523C95.8881 67.4981 96.0286 67.7408 96.1483 67.9749C96.2529 67.7408 96.3666 67.5068 96.4862 67.2728L96.9228 66.4538L97.5029 65.4212C97.7272 65.0438 97.9873 64.6021 98.2774 64.0961L100.409 60.3928C100.628 59.9993 100.935 59.6593 101.307 59.3983C101.721 59.1344 102.207 58.9989 102.702 59.0093C103.196 59.0197 103.676 59.1757 104.079 59.4568C104.534 59.7874 104.858 60.2633 104.994 60.8023L108.361 72.2514H104.258L103.002 67.7087C102.791 66.9676 102.611 66.3182 102.464 65.7605C102.316 65.2028 102.19 64.6567 102.084 64.1224C101.86 64.5787 101.606 65.0848 101.328 65.6435C101.049 66.2022 100.685 66.8838 100.233 67.7291L98.4389 71.0024C98.295 71.2846 98.1141 71.5472 97.9006 71.7834C97.7444 71.9517 97.5629 72.0957 97.3623 72.2105C97.1785 72.3147 96.9751 72.3813 96.7643 72.4065C96.3032 72.4845 95.8318 72.4845 95.3708 72.4065C95.1599 72.3813 94.9565 72.3147 94.7727 72.2105C94.5675 72.0934 94.3794 71.9497 94.2135 71.7834C94.0113 71.5432 93.8377 71.2811 93.6962 71.0024L91.902 67.7087C91.6627 67.2679 91.4504 66.8721 91.265 66.521C91.0796 66.17 90.9062 65.857 90.7477 65.585L90.347 64.804C90.2423 64.57 90.1347 64.3447 90.03 64.1224C89.9224 64.6431 89.7968 65.1872 89.6502 65.7605C89.5037 66.3338 89.3333 66.9686 89.1329 67.7087L87.877 72.2514H83.8311L87.2789 60.7906C87.4155 60.2513 87.7402 59.7754 88.1969 59.4451C88.6072 59.1514 89.1031 58.9945 89.6114 58.9975C90.0844 58.981 90.5508 59.1098 90.9451 59.3661C91.3304 59.6269 91.6454 59.9752 91.8631 60.3811L93.9952 64.0756Z" fill="#5E6069"/>
<path d="M128.005 72.2514H123.881V59.2227H128.005V72.2514Z" fill="#5E6069"/>
<path d="M158.03 72.4772C157.72 72.4803 157.412 72.4193 157.127 72.2984C156.842 72.1774 156.587 71.9992 156.377 71.7752L148.207 64.6027V72.252H144.46V61.4289C144.452 61.0508 144.512 60.6743 144.64 60.3173C144.754 60.0344 144.924 59.7761 145.139 59.5568C145.344 59.365 145.589 59.2184 145.857 59.1268C146.133 59.037 146.421 58.9916 146.712 58.9922C146.97 58.9928 147.227 59.0383 147.469 59.1268C147.807 59.2489 148.113 59.4427 148.366 59.6942L156.535 66.8667V59.2233H160.303V70.023C160.311 70.4018 160.243 70.7785 160.103 71.1316C159.996 71.4242 159.825 71.6906 159.603 71.9127C159.403 72.1096 159.157 72.2561 158.886 72.3397C158.61 72.432 158.321 72.4784 158.03 72.4772Z" fill="#5E6069"/>
<path d="M184.911 64.114H193.439V72.2518H184.295C183.204 72.2618 182.119 72.0907 181.086 71.7458C180.158 71.4366 179.294 70.967 178.535 70.3593C177.841 69.773 177.272 69.0582 176.861 68.2561C176.46 67.4278 176.256 66.522 176.263 65.6059C176.251 64.7071 176.456 63.8183 176.861 63.0112C177.266 62.2275 177.837 61.5366 178.535 60.9841C179.292 60.3929 180.158 59.9499 181.086 59.6795C182.124 59.3588 183.207 59.2008 184.295 59.2114H193.84L191.17 62.6017H184.292C183.764 62.5975 183.239 62.6765 182.737 62.8357C182.28 62.9809 181.855 63.2059 181.481 63.4997C181.142 63.7798 180.864 64.1241 180.664 64.5118C180.461 64.905 180.358 65.3407 180.365 65.7814C180.36 66.2242 180.455 66.6627 180.644 67.0655C180.844 67.4434 181.123 67.7761 181.463 68.0425C181.84 68.3245 182.264 68.5412 182.716 68.6831C183.227 68.8313 183.758 68.9042 184.292 68.8996H189.333V67.007H182.441L184.911 64.114Z" fill="#5E6069"/>
</g>
<defs>
<linearGradient id="paint0_linear" x1="75.9995" y1="13.5527" x2="75.9995" y2="52.5365" gradientUnits="userSpaceOnUse">
<stop stop-color="#ED2020"/>
<stop offset="1" stop-color="#ED2020" stop-opacity="0"/>
</linearGradient>
<clipPath id="clip0">
<rect width="212" height="86" fill="white"/>
</clipPath>
</defs>
</svg>
